<?xml version="1.0" encoding="UTF-8"?>
<svg id="Ebene_1" data-name="Ebene 1" xmlns="http://www.w3.org/2000/svg" width="789.89" height="539.38" viewBox="0 0 789.89 539.38">
  <g>
    <path d="M159.2,231.06c5.35,0,9.77,1.22,13.27,3.65,3.5,2.44,5.62,5.88,6.38,10.34h18.11c-.89-6.1-3.04-11.35-6.43-15.74-3.4-4.39-7.75-7.77-13.07-10.13-5.32-2.37-11.41-3.55-18.26-3.55-8.51,0-15.93,1.77-22.28,5.3-6.35,3.53-11.27,8.52-14.77,14.97-3.5,6.45-5.25,14.06-5.25,22.84s1.75,16.21,5.25,22.69c3.5,6.48,8.42,11.49,14.77,15.02,6.34,3.53,13.77,5.3,22.28,5.3,6.86,0,12.95-1.17,18.26-3.5,5.32-2.33,9.67-5.71,13.07-10.14,3.4-4.42,5.54-9.69,6.43-15.79h-18.11c-.76,4.46-2.88,7.92-6.38,10.39-3.5,2.47-7.92,3.71-13.27,3.71-7.68,0-13.75-2.45-18.21-7.36-4.46-4.9-6.69-11.68-6.69-20.32s2.23-15.5,6.69-20.37c4.46-4.87,10.53-7.3,18.21-7.3Z" style="fill: #170d51;"/>
    <path d="M250.77,300.21h17.08v-36.94c0-7.89.05-15.5-4.51-20.2-4.56-4.7-13.05-5.73-20.8-5.73-4.6,0-17.48-.14-20.07,1.01l-.3-50.96h-17.08v112.82h17.08v-45.87c-.07-1.5,9.64-1.77,14.3-1.77s7.96.15,10.57.55c4.44.68,3.73,8.81,3.73,13.34v33.75Z" style="fill: #170d51;"/>
    <path d="M344.41,300.21v-16.88h-8.03v-21.92c0-7.89-2.42-13.89-7.25-18.01-4.84-4.11-11.85-6.17-21.04-6.17-8.3,0-14.95,1.75-19.96,5.25-5.01,3.5-8.2,8.64-9.57,15.43h16.98c1.44-4.8,5.62-7.2,12.55-7.2,7.96,0,11.94,3.33,11.94,9.98v2.37h-17.7c-7.96,0-14.06,1.65-18.32,4.94-4.25,3.29-6.38,7.99-6.38,14.1,0,5.76,2.06,10.41,6.17,13.94,4.12,3.53,9.81,5.3,17.08,5.3,5.35,0,9.81-.98,13.38-2.93,3.57-1.95,6.41-4.72,8.54-8.28h4.32v10.08h17.29ZM320.02,275.31c0,2.47-.72,4.68-2.16,6.64-1.44,1.96-3.4,3.52-5.87,4.68-2.47,1.17-5.32,1.75-8.54,1.75-2.95,0-5.28-.62-7-1.85-1.72-1.23-2.57-2.98-2.57-5.25,0-4.6,3.09-6.9,9.26-6.9h16.87v.93Z" style="fill: #170d51;"/>
    <rect x="355.11" y="238.47" width="17.08" height="61.74" style="fill: #170d51;"/>
    <path d="M370.28,217.22c-1.82-1.82-4.03-2.73-6.64-2.73s-4.82.91-6.64,2.73c-1.82,1.82-2.73,4.03-2.73,6.64s.91,4.82,2.73,6.64c1.82,1.82,4.03,2.73,6.64,2.73s4.82-.91,6.64-2.73c1.82-1.82,2.73-4.03,2.73-6.64s-.91-4.82-2.73-6.64Z" style="fill: #170d51;"/>
    <path d="M408.2,300.21v-31.18c0-4.94,1.25-8.92,3.76-11.94,2.5-3.02,6.43-4.53,11.78-4.53h5.97v-14.82h-5.25c-4.46,0-8.47,1.06-12.04,3.19-3.57,2.13-6.17,5.35-7.82,9.67h-4.32v-12.14h-17.29v16.87h8.44v44.86h16.77Z" style="fill: #170d51;"/>
    <polygon points="138.37 158.7 99.47 158.7 99.47 140.18 141.87 140.18 141.87 124.95 82.08 124.95 82.08 208.29 99.47 208.29 99.47 173.93 138.37 173.93 138.37 158.7" style="fill: #170d51;"/>
    <path d="M157.05,208.29h16.77v-31.18c0-4.94,1.25-8.92,3.76-11.94,2.5-3.02,6.43-4.53,11.78-4.53h5.97v-14.82h-5.25c-4.46,0-8.47,1.06-12.04,3.19-3.57,2.13-6.17,5.35-7.82,9.67h-4.32v-12.14h-17.29v16.87h8.44v44.86Z" style="fill: #170d51;"/>
    <path d="M213.44,140.48c2.61,0,4.82-.91,6.64-2.73,1.82-1.82,2.73-4.03,2.73-6.64s-.91-4.82-2.73-6.64c-1.82-1.82-4.03-2.73-6.64-2.73s-4.82.91-6.64,2.73c-1.82,1.82-2.73,4.03-2.73,6.64s.91,4.82,2.73,6.64c1.82,1.82,4.03,2.73,6.64,2.73Z" style="fill: #170d51;"/>
    <rect x="204.9" y="146.56" width="17.08" height="35.35" style="fill: #170d51;"/>
    <path d="M247.91,205.57c4.94,2.64,10.73,3.96,17.39,3.96,8.16,0,14.88-1.87,20.17-5.61,5.28-3.74,8.61-8.9,9.98-15.49h-17.08c-.89,2.54-2.4,4.42-4.53,5.66-2.13,1.24-5.01,1.85-8.64,1.85-4.6,0-8.3-1.2-11.11-3.6-2.81-2.4-4.56-5.9-5.25-10.5h46.82v-5.76c0-6.38-1.23-11.87-3.7-16.46-2.47-4.59-6.02-8.13-10.65-10.6-4.63-2.47-10.17-3.7-16.62-3.7s-12.3,1.28-17.13,3.86c-4.84,2.57-8.56,6.24-11.16,11.01-2.61,4.77-3.91,10.44-3.91,17.03s1.34,12.3,4.01,17.13c2.68,4.84,6.48,8.57,11.42,11.22ZM254.54,161.79c2.64-1.99,6.05-2.99,10.24-2.99s7.51.98,9.98,2.93,3.98,4.89,4.53,8.8h-30.05c.89-3.84,2.66-6.76,5.3-8.75Z" style="fill: #170d51;"/>
    <path d="M309.03,208.29h17.08v-33.75c0-4.53,1.22-7.97,3.65-10.34,2.43-2.37,5.98-3.55,10.65-3.55s8.21,1.18,10.65,3.55c2.43,2.37,3.65,5.81,3.65,10.34v33.75h17.08v-36.94c0-7.89-2.35-14.18-7.05-18.88-4.7-4.7-11.34-7.05-19.91-7.05-5.42,0-9.95.98-13.58,2.93-3.64,1.95-6.65,4.72-9.06,8.28h-4.32v-10.08h-17.29v16.87h8.44v44.86Z" style="fill: #170d51;"/>
    <path d="M394.9,205.52c4.42,2.68,9.79,4.01,16.1,4.01,5.21,0,9.65-.99,13.32-2.98,3.67-1.99,6.6-4.77,8.8-8.34h4.32v10.08h17.29v-16.88h-8.44v-69.56h-17.08v33.13h-.41c-1.78-3.09-4.31-5.47-7.56-7.15-3.26-1.68-7.15-2.52-11.68-2.52-5.9,0-10.96,1.32-15.18,3.96-4.22,2.64-7.43,6.38-9.62,11.22-2.2,4.84-3.29,10.48-3.29,16.93s1.13,11.99,3.4,16.82c2.26,4.84,5.61,8.59,10.03,11.27ZM402.46,164.77c2.61-3.09,6.52-4.63,11.73-4.63,4.59,0,8.25,1.28,10.96,3.86,2.71,2.57,4.07,6.12,4.07,10.65v5.56c0,4.53-1.36,8.08-4.07,10.65-2.71,2.57-6.36,3.86-10.96,3.86-5.21,0-9.12-1.54-11.73-4.63-2.61-3.09-3.91-7.3-3.91-12.66s1.3-9.57,3.91-12.65Z" style="fill: #170d51;"/>
    <path d="M478.29,157.36c2.4-2.61,3.6-6.21,3.6-10.8v-21.61h-18.73v18.31h8.54v2.68c0,1.65-.45,2.98-1.34,4.01-.89,1.03-2.3,1.54-4.22,1.54h-4.73v9.77h5.76c5.01,0,8.71-1.3,11.11-3.91Z" style="fill: #170d51;"/>
    <path d="M516.98,196.56c-4.32,0-7.63-.72-9.93-2.16-2.3-1.44-3.72-3.63-4.27-6.59h-16.46c.41,6.86,3.24,12.19,8.49,16,5.25,3.81,12.4,5.71,21.45,5.71s15.52-1.78,20.22-5.35c4.7-3.57,7.05-8.54,7.05-14.92,0-4.94-1.51-8.85-4.53-11.73-3.02-2.88-7.75-4.97-14.2-6.28l-14.1-2.67c-2.13-.41-3.7-1.06-4.73-1.96-1.03-.89-1.54-1.99-1.54-3.29,0-1.85.82-3.24,2.47-4.17,1.65-.93,4.05-1.39,7.2-1.39,3.63,0,6.41.65,8.33,1.95,1.92,1.3,3.26,3.4,4.01,6.28h16.46c-.48-6.52-3.16-11.59-8.03-15.23-4.87-3.64-11.46-5.45-19.76-5.45s-14.92,1.77-19.65,5.3c-4.73,3.53-7.1,8.25-7.1,14.15,0,9.19,6.17,14.99,18.52,17.39l13.79,2.67c2.47.48,4.24,1.18,5.3,2.11,1.06.93,1.59,2.18,1.59,3.76,0,3.91-3.53,5.87-10.6,5.87Z" style="fill: #170d51;"/>
  </g>
  <g>
    <g>
      <path d="M277.92,411.02c-5.5,1.46-11.48,1.54-17.61-.33-.53-.11-.77-.55-.86-.9-.15-.58.13-1.41.83-1.6.23-.06.38.02.65.08,5.72,1.74,11.35,1.75,16.38.41,21.4-5.68,30.07-35.77,24.67-56.11-3.35-12.63-11.89-20.75-25.69-17.09-7.02,1.86-12.8,5.52-17.52,10.41-1.73,22.24-4.46,51.13-6.17,64.48-.5,3.76-1.9,6.51-4.24,7.13-2.92.78-5.28-1.98-6.34-5.96-5.49-20.7-1.33-49.84,14.36-66.65.23-2.44.46-4.88.6-7.17.08-.65.37-.97.84-1.1.58-.16,1.26.04,1.45.74l-.31,4.96c4.63-4.23,10.28-7.49,16.71-9.19,15.55-4.13,25.11,5.48,28.65,18.81,5.55,20.93-3.11,52.9-26.38,59.07ZM244.35,410.91c1.02,3.86,2.68,4.42,3.38,4.24s2.09-1.56,2.51-5.17c1.64-12.7,4.07-39.38,5.81-61.12-13.41,16.45-16.66,43.35-11.7,62.06Z" style="fill: #170d51;"/>
      <path d="M348.13,381.2c-1.96,2.6-4.6,5.09-7.6,5.89-1.85.49-3.87.37-6.08-.84-1.48,6.53-5.62,12.26-10.65,13.59-4.85,1.29-7.52-2.35-8.59-6.41-2.01-7.59.61-20.46,9.79-22.9,1.06-.28,2.19-.3,3.34-.23.49.06.73.28.83.63.12.44-.03.95-.56,1.09-.09.02-.18.05-.38,0-.98-.12-1.88.03-2.76.26-7.59,2.01-10.43,13.34-8.49,20.67.82,3.09,2.66,6.09,6.36,5.11,4.41-1.17,8.43-6.67,9.58-13.02-1.39-1.33-2.44-3.13-3.07-5.51-.73-2.73-.3-5.4,1.64-5.91,1.68-.44,2.58,1.2,2.96,2.61.68,2.56.85,5.35.43,8.01,1.77,1.33,3.52,1.52,5.2,1.08,2.65-.7,4.96-3.02,6.57-5.14.56-.72,1.08-1.61,1.54-2.39.13-.22.37-.38.55-.43.44-.12.98.12,1.12.65.05.18.03.46-.1.69-.52.89-1.06,1.7-1.6,2.5ZM332.04,375.37c-.18.05-1.18.88-.43,3.7.35,1.32.86,2.51,1.6,3.54.15-1.93-.01-3.96-.53-5.9-.05-.18-.33-1.23-.64-1.34Z" style="fill: #170d51;"/>
      <path d="M398.69,365.71c-3.11,5.36-8.25,15.88-14.51,17.54-3,.8-5.08-.63-5.83-3.46-1.1-4.15,1.09-17.95,1.87-22.5.08-.4.39-.67.65-.74.44-.12.98.12,1.12.65.02.09.05.18,0,.38-.76,4.26-2.86,18.04-1.88,21.74.52,1.94,1.65,2.68,3.6,2.16,5.38-1.43,10.7-12,13.42-16.69.13-.22.37-.38.55-.43.44-.12,1,.21,1.12.65.05.18.03.46-.1.69Z" style="fill: #170d51;"/>
      <path d="M417.33,348.77l-15.88,4.21-2,9.88c-1.18,5.51-1.17,9.47-.49,12.03.91,3.44,3.05,4.38,5.34,3.77,3-.79,6.6-4.3,9.09-9.87.11-.31.35-.47.61-.54.44-.12,1.02.29,1.14.74.05.18.09.35-.04.58-2.59,5.88-6.63,9.88-10.34,10.86-3.44.91-6.43-.75-7.58-5.07-.8-3-.68-7.18.48-12.78l1.84-9.08-5.82,1.54c-.62.16-1-.21-1.12-.65s.03-.95.65-1.12l6.7-1.78,3.98-18.81c.08-.4.39-.67.65-.74.44-.12.98.12,1.12.65.02.09.07.27,0,.38l-3.81,18.01,14.91-3.96c.53-.14.95.03,1.12.65.12.44-.03.95-.56,1.09Z" style="fill: #170d51;"/>
      <path d="M499.53,329.22l-1.3,2.25c-5.29,9.11-10.85,15.45-17.47,22.66-1.45,16.87-4.98,34.41-13.18,36.59-3.1.82-6.02-.78-7.05-4.65-2.5-9.42,10.74-24.79,17.88-32.74,1.12-13.23,1.1-25.79,1.02-29.69-.07-6.51-.38-13.07-.59-19.65-4.12,19.36-11.71,47.94-22.91,50.91-6.21,1.65-11.68-3.78-14.56-14.64-4.17-15.74,1.9-37.99,3.65-43.91.56-1.93.71-3.15.56-3.71-.09-.33-.32-.75-1.54-.42-7.54,2-15.58,13.27-18.67,20.37-.13.39-.44.59-.77.68-.55.15-1.26-.26-1.4-.81-.06-.22-.12-.44.04-.72,3.1-7.11,11.57-19.44,20.21-21.73,1.99-.53,3.81.06,4.34,2.05.35,1.33.07,2.95-.49,4.87-1.75,5.92-7.72,27.67-3.72,42.74,2.88,10.86,7.66,14.1,11.76,13.01,12.96-3.44,21.73-51.31,23.98-63.41.1-.5.49-.84.82-.93.55-.15,1.23.15,1.4.81.03.11.09.33,0,.47-1.28,11.25.07,22.64.21,33.87.07,4.73.08,15.52-.78,27.01,4.33-4.71,10.56-12.05,15.28-20.19l1.3-2.24c.16-.28.47-.48.69-.54.55-.15,1.26.26,1.4.81.06.22.04.58-.13.86ZM462.74,385.48c.73,2.77,2.47,3.5,4.24,3.03,6.54-1.73,9.64-16.44,11.09-31.53-14.01,15.58-16.36,24.62-15.33,28.5Z" style="fill: #170d51;"/>
      <path d="M565.96,323.59c-2.59,4.46-8.53,14.82-13.21,16.06-2.29.61-4.06-.72-4.93-3.98-.87-3.26-.74-8.11-.13-13.66-2.22,5.5-9.8,22.14-16.59,23.95-2.82.75-4.97-.95-5.84-4.21-1.38-5.21.81-11.55,2.42-20.76.06-.49.14-.89.14-1.26-.02-.09-.14-.15-.31-.11-5.48,2.12-13.43,4.89-18.63,6.64,1.55,1.57,2.58,3.66,3.16,5.87,2.69,10.14-2.42,17.92-8.24,19.47-4.15,1.1-8.21-1.03-9.77-6.94-2.32-8.73,1.67-17.54,8.2-20.68.84-.41,1.69-.73,2.49-.94.62-.16,1.06-.28,1.61-.33.35-.09.84-.04,1.03.67.12.44-.03.95-.65,1.12-.53.14-1.61.33-1.61.33-.53.14-1.72.65-2.55,1.06-6.35,3.48-8.39,12.14-6.75,18.32,1.36,5.12,4.54,6.44,7.54,5.65,4.59-1.22,9.45-7.79,6.95-17.23-.63-2.38-1.83-4.42-3.4-5.71-.62.16-1.13.02-1.29-.6-.12-.44.12-.97.65-1.12,5.58-1.76,14.47-4.88,21.76-7.66l.09-.02c.71-.19,1.27.51,1.46,1.22.38,1.41-.53,4.77-.82,6.17-1.31,5.73-2.7,12.61-1.69,16.41.7,2.65,2.11,3.31,3.61,2.91,7.41-1.97,16.7-25.3,18.23-31.28.08-.4.39-.67.65-.74.44-.12.98.12,1.12.65.05.18.07.26.03.46-1.26,9.12-2.27,17.41-1.08,21.91.73,2.73,1.81,2.92,2.7,2.68,3.97-1.05,10.04-11.63,12.24-15.43l1.43-2.46c.13-.22.37-.38.55-.43.44-.12.98.12,1.12.65.05.18.03.46-.1.69l-1.56,2.68Z" style="fill: #170d51;"/>
      <path d="M603.51,311.36l-1.04,1.79c-2.79,4.8-10.44,17.22-16.53,18.83-2.38.63-4.34-.36-5.05-3-1.24-4.67,5.27-12.54,3.72-18.36-.54-2.03-5.71-1.6-7.13-1.6-1.88.03-3.37-.24-4.5-.6-1,4.04-3.39,8.93-5.46,12.5l-1.04,1.79c-.13.22-.37.38-.55.43-.44.12-1-.21-1.12-.65-.05-.17-.03-.46.1-.69l1.04-1.79c1.88-3.24,4.08-7.41,5.31-12.36-.65-.3-1.1-.94-1.26-1.55-.26-.97.04-1.99,1.18-2.3.97-.26,1.84.17,2.1,1.14.12.44.08,1.02-.07,1.53,1.18.54,1.76.57,4.15.69,3.9.1,8.14-.27,9.01,2.99,1.71,6.44-4.73,14.57-3.72,18.36.45,1.68,1.4,2.08,2.81,1.71,5.38-1.43,13.04-13.85,15.44-17.98l1.04-1.79c.13-.22.37-.38.55-.43.44-.12,1,.21,1.12.65.05.18.03.46-.1.69Z" style="fill: #170d51;"/>
      <path d="M635.26,302.94l-1.04,1.79c-3.63,6.25-6.64,10.54-9.81,13.56-2.86,2.74-6.88,5.04-10.41,5.97-2.38.63-4.55.64-6.18-.16-.22-.13-.38-.37-.43-.55-.12-.44.14-.89.58-1,.18-.05.46-.03.69.1,1.32.69,3.74.23,4.63,0,3-.8,6.02-4.34,4.67-9.45-1.52-5.73-5.69-7.93-7.07-13.14-.12-.44-.17-.99-.2-1.46-2.22,4.08-5.11,9.19-7.19,12.76l-1.04,1.79c-.13.22-.37.38-.55.43-.44.12-1-.21-1.12-.65-.05-.17-.03-.46.1-.69l1.04-1.79c3.44-5.92,8.74-15.44,10.01-18.52.11-.31.35-.47.61-.54.44-.12.98.12,1.12.65.05.18.09.35-.04.58-.55,1.47-1.55,4.85-.98,6.97,1.33,5.03,5.43,6.96,7.07,13.14.73,2.73.39,5.75-1.43,8.12,5.83-4,9.18-8.1,14.37-17.03l1.04-1.79c.13-.22.37-.38.55-.43.44-.12,1,.21,1.12.65.05.18.03.46-.1.69Z" style="fill: #170d51;"/>
      <path d="M644.33,314.32c-5.12,1.36-8.93-1.97-10.4-7.53-2.88-10.85,3.38-20.35,9.73-22.03,2.65-.7,5,0,5.75,2.82,1.29,4.85-7.77,12.35-14.16,16.03-.03.95.2,1.83.44,2.72,1.33,5.03,4.55,7.2,8.35,6.19,6.44-1.71,12.21-10.23,15.38-15.7l1.04-1.79c.13-.22.37-.38.55-.43.44-.12.98.12,1.12.65.05.18.03.46-.1.69l-1.04,1.79c-3.5,6.03-9.59,14.73-16.65,16.6ZM647.64,288.04c-.4-1.5-1.67-2.01-3.7-1.47-4.5,1.19-8.83,7.63-8.84,15.09,4.55-2.43,13.49-10,12.53-13.62Z" style="fill: #170d51;"/>
      <path d="M663.43,289.89c-.29-17.11,3.29-40.62,11.23-42.73,2.73-.73,4.13.98,4.9,3.89,2.32,8.73-7.55,27.4-14.38,39.41.07,4.89.58,9.29,1.42,12.46,1.1,4.15,2.42,4.84,3.47,4.55,4.59-1.22,12.02-14.14,14.48-18.38l.39-.67c.13-.22.37-.38.55-.43.44-.12.98.12,1.12.65.05.18.03.46-.1.69l-.52.89c-2.76,4.89-10.06,17.59-15.44,19.02-2.91.77-4.68-1.97-5.71-5.85-.68-2.56-1.13-6.03-1.34-10.03l-2.46,4.24c-.13.22-.37.38-.55.43-.44.12-.98-.12-1.12-.65-.05-.17-.03-.46.1-.69l3.95-6.81ZM677.8,251.52c-.7-2.65-1.52-2.9-2.67-2.6-6.09,1.61-9.79,21.48-9.99,37.78l.02.09c6.65-11.96,14.58-27.95,12.64-35.27Z" style="fill: #170d51;"/>
      <path d="M690.72,295.96l.79-.21c7.14-1.9,10.97-6.69,14.6-12.94.13-.22.37-.38.55-.43.44-.12.98.12,1.12.65.05.18.03.46-.1.69-3.89,6.7-8.02,11.76-15.7,13.8l-.53.14c3.82,2.29,5.97,5.78,7,9.66,2.36,8.91-1.32,19.23-6.61,20.64-2.21.58-3.67-1.01-4.42-3.83-.84-3.18-.85-8.55.09-16.74l1.06-9.16-.31-.11c-.31-.11-.47-.35-.54-.61-.12-.44.12-.98.56-1.09l.44-.12,1.76-14.72c-1.87,3.99-3.72,7.32-5.02,9.55-.13.22-.37.38-.55.43-.44.12-.98-.12-1.12-.65-.05-.17-.03-.46.1-.69,1.69-2.9,4.48-8.37,7.27-14.58.85-7.12,1.72-14.15,2.77-21.23.88-6.28,2.42-10.08,4.19-10.55,1.41-.37,2.16,1.03,2.47,2.18,1.66,6.26-2.87,19.08-7.63,29.97l-2.26,19.96ZM689.2,323.66c.68,2.56,1.57,2.7,2.18,2.54,3.7-.98,7.63-9.67,5.31-18.41-1.01-3.79-3.13-6.82-6.37-8.7-.71,6.23-2.67,18.75-1.13,24.57ZM693.8,269.47c3.57-8.97,6.31-18.2,5.05-22.96-.12-.44-.19-.71-.32-.86-2.43,1.87-4.38,20.52-4.73,23.82Z" style="fill: #170d51;"/>
    </g>
    <path d="M385.92,337.67c1.15,1.18,2.34,2.4,2.72,4.57.09.52.6.86,1.11.78.52-.09.87-.59.78-1.11-.48-2.75-2.01-4.32-3.26-5.61-1.32-1.36-1.99-2.14-1.6-3.65.18-.71.49-1.46,2.21-2.73.32-.23.46-.64.36-1.02s-.43-.66-.82-.71c-.15-.02-3.7-.4-6.41,2.12-2.09,1.95-3.06,5.02-2.87,9.13,0,.03,0,.05,0,.08-.09-.11-.18-.26-.27-.45-.21-.44-.63-1.66-.04-3.31.13-.37.03-.79-.27-1.05-.3-.26-.72-.31-1.07-.14-.12.06-3.05,1.58-3.78,4.72-.32,1.39-.3,3.87.81,6.3.87,1.9,2.7,4.36,6.43,5.22.76.18,1.51.26,2.24.26,2.74,0,5.21-1.21,6.85-3.45.31-.43.22-1.03-.2-1.34-.43-.32-1.03-.22-1.35.2-1.61,2.19-4.27,3.11-7.11,2.45-2.97-.69-4.42-2.64-5.11-4.15-.85-1.86-.96-3.89-.69-5.06.18-.8.58-1.46,1.02-1.98.07,1.5.68,2.72,1.43,3.41.64.58,1.39.75,2.02.46.49-.23,1.07-.81,1-2.26-.16-3.51.6-6.07,2.25-7.62.72-.68,1.54-1.08,2.3-1.32-.42.6-.65,1.16-.8,1.75-.67,2.63.79,4.14,2.11,5.5Z" style="fill: #ff9d00;"/>
  </g>
</svg>