<?xml version="1.0" encoding="UTF-8"?>
<svg id="Ebene_1" data-name="Ebene 1" xmlns="http://www.w3.org/2000/svg" width="535.17" height="288.45" viewBox="0 0 535.17 288.45">
  <path d="M361.47,183.78c-7.85,2.08-16.87,14.25-25.85,34.4,1.34-14.67,2.23-26.89,1.82-28.43-.51-1.93-2.04-2.49-3.45-2.11-.9.24-1.7.87-2.14,1.81-3.32,7.22-6.28,14.75-10.25,21.58l-1.51,2.6s0,.02,0,.03l-1.68,2.9c-7.18,12.37-10.58,18.23-15.09,19.43-.51.14-1.23.05-1.74-1.88-1.26-4.76,1.52-17.62-.53-25.34-.92-3.47-3.11-5.51-6.46-4.62-8.23,2.18-16.88,20.45-20.23,28.09.73-5.57,1.73-14.23.26-19.76-1.23-4.63-4.21-7.56-8.58-6.4-9.13,2.42-17.2,20.81-20.29,28.38.32-4.49.06-9.11-1.13-13.61-.41-1.54-1.59-2.88-3.39-2.41-.26.07-.52.14-.74.34-1.79,1.02-9.73,14.7-10.86,16.65l-.44.75c-3.13,5.29-12.08,19.37-16.36,20.51-.9.24-3,.11-4.3-4.78-2.01-7.59-1.98-14.21.41-20.76l1.46-3.83c.06-.29.12-.58.05-.84-.21-.77-.99-1.12-1.63-.94-.39.1-.74.33-.89.79-.59,1.4-1.02,2.89-1.49,4.25l-1.12,3.05c-3.09-3.86-7.32-6.32-12.6-4.92-8.55,2.27-14.62,11.42-16.63,20.96l-1.49,2.57c-11.44,19.7-21.37,29.49-34.23,32.91-10.16,2.7-17.55-3.33-20.51-14.52-9.49-35.76,17.51-68.95,28.31-71.82,4.89-1.3,8.95.52,10.69,7.08,2.76,10.42-4.15,25.89-10.19,27.49-1.16.31-1.68-.1-1.88-.88-.41-1.54.95-3.69,3.47-5.6.45-.39.57-.98.46-1.36-.17-.64-.86-1.15-1.63-.95-.13.03-.26.07-.48.27-2.27,1.84-5.29,4.98-4.4,8.33.65,2.44,2.82,3.38,5.14,2.76,8.1-2.15,15.02-19.68,12.08-30.75-2.12-7.97-7.51-10.67-13.95-8.97-12.35,3.28-40.03,38.02-30.2,75.08,3.21,12.09,11.55,19.65,23.77,16.41,13.29-3.53,23.39-13.41,34.34-31.65-.02,2.36.21,4.65.77,6.77,1.23,4.63,4.36,9.17,9.64,7.77,6.56-1.74,12.85-13.32,18.78-27.84-.01,3.58.62,7,1.37,9.83,1.37,5.15,4.21,7.56,7.55,6.67,5-1.33,12.77-13.15,16.8-19.81.03-.03.06-.06.08-.09l.96-1.65c.2-.34.4-.67.56-.96,0,0,0-.01,0-.02.72-1.23,9.17-15.22,9.99-15.71l.14.51c2.6,10.33.33,20.98-3.04,31.1-.19.33-.09.72-.02.97.2.77.98,1.12,1.63.94.39-.1.74-.33.86-.92,3.29-9.41,14.44-42.11,25.25-44.98,2.32-.62,4.27.52,5.33,4.51,1.94,7.33-.64,22.48-2.18,30.18-.06.29-.03.42.04.68.2.77.85,1.15,1.5.98.39-.1.7-.46.99-.95,3.34-8.18,13.99-34.97,22.87-37.32,1.28-.34,2.49.03,3.2,2.73,1.95,7.33-.94,19.81.53,25.34.61,2.31,2.16,4.52,4.99,3.77,6.56-1.74,10.73-10.42,18.39-23.6l1.51-2.61s0-.02,0-.03c3.96-6.83,7.14-14.55,10.42-21.88.06-.29.19-.32.32-.36.13-.03.2.22.23.35-.21,5.43-.93,16.22-1.13,18.06-.38,5.33-.93,11.54-1.58,17.91-1.87,4.9-3.83,9.97-5.78,15.58-2.54,7.56-7.87,25.36-5.89,32.82.82,3.09,3.23,4.38,5.41,3.8,1.54-.41,2.98-1.76,3.59-4.12.65-2.24,3.21-25.78,5.29-47.53,7.58-18.67,17.85-38.06,27.37-40.59,4.37-1.16,7.64,1.28,8.9,6.04,2.8,10.55-3.48,31.5-14.55,34.43-2.32.61-4.84.46-7.63-.73-.32-.19-.58-.12-.84-.05-.64.17-1.12.98-.94,1.63.1.39.33.74.79.89,3.25,1.34,6.48,1.58,9.31.83,13.12-3.48,19.41-26.49,16.44-37.69-1.54-5.79-5.98-9.56-12.16-7.93ZM185.14,268.02c-2.96.78-5.22-1.51-6.38-5.88-3.04-11.45,3.99-28.05,14.66-30.88,4.63-1.23,8.35,1.37,10.86,5.11-4.94,13.02-12.45,29.88-19.14,31.66ZM327.64,269.59c-.2,1.85-.54,3.17-.81,4.21-.34,1.33-.97,2.05-1.62,2.22-.9.24-1.75-.36-2.16-1.9-.96-3.6.17-10.79,1.81-17.56,1.28-5.02,3.47-12.35,6.33-20.27-1.33,13.16-2.6,26.03-3.56,33.3Z" style="fill: #fffdf5;"/>
  <path d="M77.11,109.3c5.35,0,9.77,1.22,13.27,3.65,3.5,2.44,5.62,5.88,6.38,10.34h18.11c-.89-6.1-3.04-11.35-6.43-15.74-3.4-4.39-7.75-7.77-13.07-10.13-5.32-2.37-11.41-3.55-18.26-3.55-8.51,0-15.93,1.77-22.28,5.3-6.35,3.53-11.27,8.52-14.77,14.97-3.5,6.45-5.25,14.06-5.25,22.84s1.75,16.21,5.25,22.69c3.5,6.48,8.42,11.49,14.77,15.02,6.34,3.53,13.77,5.3,22.28,5.3,6.86,0,12.95-1.17,18.26-3.5,5.32-2.33,9.67-5.71,13.07-10.14,3.4-4.42,5.54-9.69,6.43-15.79h-18.11c-.76,4.46-2.88,7.92-6.38,10.39-3.5,2.47-7.92,3.71-13.27,3.71-7.68,0-13.75-2.45-18.21-7.36-4.46-4.9-6.69-11.68-6.69-20.32s2.23-15.5,6.69-20.37c4.46-4.87,10.53-7.3,18.21-7.3Z" style="fill: #fffdf5;"/>
  <path d="M168.69,178.45h17.08v-36.94c0-7.89.05-15.5-4.51-20.2-4.56-4.7-13.05-5.73-20.8-5.73-4.6,0-17.48-.14-20.07,1.01l-.3-50.96h-17.08v112.82h17.08v-45.87c-.07-1.5,9.64-1.77,14.3-1.77s7.96.15,10.57.55c4.44.68,3.73,8.81,3.73,13.34v33.75Z" style="fill: #fffdf5;"/>
  <path d="M262.32,178.45v-16.88h-8.03v-21.92c0-7.89-2.42-13.89-7.25-18.01-4.84-4.11-11.85-6.17-21.04-6.17-8.3,0-14.95,1.75-19.96,5.25-5.01,3.5-8.2,8.64-9.57,15.43h16.98c1.44-4.8,5.62-7.2,12.55-7.2,7.96,0,11.94,3.33,11.94,9.98v2.37h-17.7c-7.96,0-14.06,1.65-18.32,4.94-4.25,3.29-6.38,7.99-6.38,14.1,0,5.76,2.06,10.41,6.17,13.94,4.12,3.53,9.81,5.3,17.08,5.3,5.35,0,9.81-.98,13.38-2.93,3.57-1.95,6.41-4.72,8.54-8.28h4.32v10.08h17.29ZM237.94,153.55c0,2.47-.72,4.68-2.16,6.64-1.44,1.96-3.4,3.52-5.87,4.68-2.47,1.17-5.32,1.75-8.54,1.75-2.95,0-5.28-.62-7-1.85-1.72-1.23-2.57-2.98-2.57-5.25,0-4.6,3.09-6.9,9.26-6.9h16.87v.93Z" style="fill: #fffdf5;"/>
  <rect x="273.02" y="116.71" width="17.08" height="61.74" style="fill: #fffdf5;"/>
  <path d="M288.2,95.46c-1.82-1.82-4.03-2.73-6.64-2.73s-4.82.91-6.64,2.73c-1.82,1.82-2.73,4.03-2.73,6.64s.91,4.82,2.73,6.64c1.82,1.82,4.03,2.73,6.64,2.73s4.82-.91,6.64-2.73c1.82-1.82,2.73-4.03,2.73-6.64s-.91-4.82-2.73-6.64Z" style="fill: #fffdf5;"/>
  <path d="M326.12,178.45v-31.18c0-4.94,1.25-8.92,3.76-11.94,2.5-3.02,6.43-4.53,11.78-4.53h5.97v-14.82h-5.25c-4.46,0-8.47,1.06-12.04,3.19-3.57,2.13-6.17,5.35-7.82,9.67h-4.32v-12.14h-17.29v16.87h8.44v44.86h16.77Z" style="fill: #fffdf5;"/>
  <polygon points="56.28 36.94 17.39 36.94 17.39 18.42 59.78 18.42 59.78 3.19 0 3.19 0 86.54 17.39 86.54 17.39 52.17 56.28 52.17 56.28 36.94" style="fill: #fffdf5;"/>
  <path d="M74.97,86.54h16.77v-31.18c0-4.94,1.25-8.92,3.76-11.94,2.5-3.02,6.43-4.53,11.78-4.53h5.97v-14.82h-5.25c-4.46,0-8.47,1.06-12.04,3.19-3.57,2.13-6.17,5.35-7.82,9.67h-4.32v-12.14h-17.29v16.87h8.44v44.86Z" style="fill: #fffdf5;"/>
  <path d="M131.36,18.73c2.61,0,4.82-.91,6.64-2.73,1.82-1.82,2.73-4.03,2.73-6.64s-.91-4.82-2.73-6.64c-1.82-1.82-4.03-2.73-6.64-2.73s-4.82.91-6.64,2.73c-1.82,1.82-2.73,4.03-2.73,6.64s.91,4.82,2.73,6.64c1.82,1.82,4.03,2.73,6.64,2.73Z" style="fill: #fffdf5;"/>
  <rect x="122.81" y="24.8" width="17.08" height="35.35" style="fill: #fffdf5;"/>
  <path d="M165.83,83.81c4.94,2.64,10.73,3.96,17.39,3.96,8.16,0,14.88-1.87,20.17-5.61,5.28-3.74,8.61-8.9,9.98-15.49h-17.08c-.89,2.54-2.4,4.42-4.53,5.66-2.13,1.24-5.01,1.85-8.64,1.85-4.6,0-8.3-1.2-11.11-3.6-2.81-2.4-4.56-5.9-5.25-10.5h46.82v-5.76c0-6.38-1.23-11.87-3.7-16.46-2.47-4.59-6.02-8.13-10.65-10.6-4.63-2.47-10.17-3.7-16.62-3.7s-12.3,1.28-17.13,3.86c-4.84,2.57-8.56,6.24-11.16,11.01-2.61,4.77-3.91,10.44-3.91,17.03s1.34,12.3,4.01,17.13c2.68,4.84,6.48,8.57,11.42,11.22ZM172.46,40.03c2.64-1.99,6.05-2.99,10.24-2.99s7.51.98,9.98,2.93,3.98,4.89,4.53,8.8h-30.05c.89-3.84,2.66-6.76,5.3-8.75Z" style="fill: #fffdf5;"/>
  <path d="M226.94,86.54h17.08v-33.75c0-4.53,1.22-7.97,3.65-10.34,2.43-2.37,5.98-3.55,10.65-3.55s8.21,1.18,10.65,3.55c2.43,2.37,3.65,5.81,3.65,10.34v33.75h17.08v-36.94c0-7.89-2.35-14.18-7.05-18.88-4.7-4.7-11.34-7.05-19.91-7.05-5.42,0-9.95.98-13.58,2.93-3.64,1.95-6.65,4.72-9.06,8.28h-4.32v-10.08h-17.29v16.87h8.44v44.86Z" style="fill: #fffdf5;"/>
  <path d="M312.81,83.76c4.42,2.68,9.79,4.01,16.1,4.01,5.21,0,9.65-.99,13.32-2.98s6.6-4.77,8.8-8.34h4.32v10.08h17.29v-16.88h-8.44V.1h-17.08v33.13h-.41c-1.78-3.09-4.31-5.47-7.56-7.15-3.26-1.68-7.15-2.52-11.68-2.52-5.9,0-10.96,1.32-15.18,3.96-4.22,2.64-7.43,6.38-9.62,11.22-2.2,4.84-3.29,10.48-3.29,16.93s1.13,11.99,3.4,16.82c2.26,4.84,5.61,8.59,10.03,11.27ZM320.37,43.01c2.61-3.09,6.52-4.63,11.73-4.63,4.59,0,8.25,1.28,10.96,3.86,2.71,2.57,4.07,6.12,4.07,10.65v5.56c0,4.53-1.36,8.08-4.07,10.65-2.71,2.57-6.36,3.86-10.96,3.86-5.21,0-9.12-1.54-11.73-4.63-2.61-3.09-3.91-7.3-3.91-12.66s1.3-9.57,3.91-12.65Z" style="fill: #fffdf5;"/>
  <path d="M396.21,35.6c2.4-2.61,3.6-6.21,3.6-10.8V3.19h-18.73v18.31h8.54v2.68c0,1.65-.45,2.98-1.34,4.01-.89,1.03-2.3,1.54-4.22,1.54h-4.73v9.77h5.76c5.01,0,8.71-1.3,11.11-3.91Z" style="fill: #fffdf5;"/>
  <path d="M434.9,74.81c-4.32,0-7.63-.72-9.93-2.16-2.3-1.44-3.72-3.63-4.27-6.59h-16.46c.41,6.86,3.24,12.19,8.49,16,5.25,3.81,12.4,5.71,21.45,5.71s15.52-1.78,20.22-5.35c4.7-3.57,7.05-8.54,7.05-14.92,0-4.94-1.51-8.85-4.53-11.73-3.02-2.88-7.75-4.97-14.2-6.28l-14.1-2.67c-2.13-.41-3.7-1.06-4.73-1.96-1.03-.89-1.54-1.99-1.54-3.29,0-1.85.82-3.24,2.47-4.17,1.65-.93,4.05-1.39,7.2-1.39,3.63,0,6.41.65,8.33,1.95,1.92,1.3,3.26,3.4,4.01,6.28h16.46c-.48-6.52-3.16-11.59-8.03-15.23-4.87-3.64-11.46-5.45-19.76-5.45s-14.92,1.77-19.65,5.3c-4.73,3.53-7.1,8.25-7.1,14.15,0,9.19,6.17,14.99,18.52,17.39l13.79,2.67c2.47.48,4.24,1.18,5.3,2.11,1.06.93,1.59,2.18,1.59,3.76,0,3.91-3.53,5.87-10.6,5.87Z" style="fill: #fffdf5;"/>
  <path d="M535.14,167.4c-.17-.64-.98-1.12-1.63-.94-.26.07-.61.3-.8.62-3.76,5.54-8.61,9.58-13.11,10.78-4.5,1.2-9.08-.48-11.16-8.33-.68-2.57-.49-2.9-.47-3.32,10.3-6.32,21.31-15.71,19.63-22.01l-.14-.52c-.96-3.6-5.01-4.87-8.74-3.88-5.85,1.55-14.23,10.36-13.5,24.95l-1.12,1.93c-3.5,6.02-14.66,24.13-22.51,26.22-2.06.55-3.46-.05-4.1-2.49-1.47-5.53,7.92-17.39,5.43-26.78-1.26-4.76-7.45-4.22-13.14-4.36-3.49-.18-4.33-.23-6.05-1.01.22-.75.27-1.59.1-2.23-.37-1.42-1.64-2.04-3.06-1.67-1.67.44-2.1,1.93-1.73,3.35.24.9.9,1.83,1.84,2.26-1.8,7.23-5.01,13.31-7.75,18.03l-1.51,2.6s0,0,0,.01c-4.44,7.65-11.49,19.98-18.05,21.72-2.83.75-4.49-.32-5.24-3.15-1.26-4.76,1.52-26.43,2.23-31.03.1-.16.03-.42,0-.55-.27-1.03-1.76-1.46-2.67-1.22-.13.03-.8.63-.89.79-1.94,4.1-7.87,16-10.52,20.56l-.07.12c-5.27,9.05-10.85,16-21.22,18.75l-1.16.31,3.29-29.11c6.94-15.89,13.55-34.58,11.12-43.71-.44-1.67-1.54-3.72-3.6-3.17-2.57.68-4.82,6.24-6.11,15.39-1.53,10.32-2.8,20.57-4.04,30.95-4.07,9.06-8.15,17.03-10.61,21.27-.19.33-.21.75-.15,1,.21.77.98,1.11,1.63.94.26-.07.61-.3.8-.62,1.89-3.26,4.6-8.11,7.32-13.92l-2.56,21.47-.64.17c-.64.17-.99.95-.82,1.59.1.38.33.73.79.89l.46.16-1.55,13.35c-1.38,11.93-1.36,19.78-.13,24.41,1.09,4.12,3.22,6.44,6.44,5.59,7.72-2.05,13.09-17.1,9.64-30.1-1.5-5.66-4.64-10.75-10.21-14.09l.77-.2c10.08-2.68,15.97-8.95,21.18-17.3.07-.07.15-.13.19-.21l1.42-2.44c.03-.06.07-.11.1-.16,0,0,0-.01,0-.02,3.4-5.86,6.82-12.67,9-17.38-.8,4.76-3.42,22.94-2.02,28.21,1.09,4.12,4.12,6.21,8.5,5.04,7.59-2.01,14.27-13.7,19.65-22.98l1.51-2.61s0-.02,0-.02c3.02-5.21,6.49-12.31,7.96-18.2,1.66.52,3.82.91,6.57.88,2.07,0,9.61-.62,10.4,2.33,2.25,8.49-7.23,19.96-5.43,26.78,1.02,3.86,3.89,5.3,7.36,4.38,8.43-2.24,18.92-18.68,23.43-26.32.07.4.1.78.18,1.18,2.39,9.01,7.95,11.8,14.12,10.16,5.4-1.43,10.89-6.2,14.84-12.06.32-.36.34-.78.28-1.04ZM405.41,133.53c.2.22.3.61.47,1.25,1.84,6.95-2.16,20.4-7.36,33.49.51-4.82,3.35-32.01,6.89-34.74ZM402.74,224.15c3.38,12.74-2.35,25.41-7.75,26.84-.9.24-2.19.03-3.18-3.7-2.25-8.49.62-26.74,1.65-35.83,4.72,2.74,7.82,7.15,9.29,12.68ZM519.16,142.45c3.34-.89,5.33.38,5.81,2.18l.07.26c1.09,4.12-5.94,11.35-17.23,18.62.2-11.2,5.3-19.45,11.35-21.05Z" style="fill: #fffdf5;"/>
  <path d="M436.86,136.67c1.66,1.7,3.37,3.46,3.92,6.59.13.76.87,1.24,1.6,1.13.76-.13,1.26-.85,1.13-1.6-.69-3.97-2.89-6.23-4.7-8.09-1.9-1.96-2.87-3.08-2.31-5.26.26-1.03.7-2.1,3.18-3.93.46-.34.66-.92.52-1.47s-.61-.96-1.18-1.02c-.22-.03-5.34-.57-9.24,3.06-3.01,2.81-4.41,7.23-4.14,13.16,0,.04,0,.08,0,.11-.12-.16-.26-.38-.39-.65-.3-.64-.91-2.39-.05-4.78.19-.54.04-1.13-.39-1.51-.43-.37-1.04-.45-1.55-.2-.18.09-4.4,2.28-5.45,6.81-.46,2-.43,5.58,1.17,9.08,1.26,2.75,3.89,6.28,9.27,7.52,1.1.26,2.18.38,3.23.38,3.95,0,7.51-1.75,9.88-4.97.45-.62.32-1.48-.29-1.94-.62-.46-1.49-.32-1.94.29-2.33,3.16-6.16,4.48-10.25,3.53-4.28-.99-6.37-3.8-7.37-5.98-1.23-2.68-1.39-5.6-.99-7.3.27-1.15.84-2.1,1.47-2.86.1,2.16.97,3.93,2.06,4.91.92.84,2.01,1.08,2.91.67.71-.33,1.54-1.17,1.45-3.26-.23-5.06.86-8.75,3.24-10.98,1.04-.98,2.22-1.56,3.31-1.9-.61.86-.93,1.68-1.15,2.53-.97,3.79,1.14,5.97,3.04,7.92Z" style="fill: #ff9d00;"/>
</svg>